<svg width="35" height="39" viewBox="0 0 35 39" fill="none" xmlns="http://www.w3.org/2000/svg">
<path d="M24 0.5C26.5833 0.5 28.6806 1.06611 30.2917 2.19832C31.9028 3.30223 33.0833 4.83072 33.8333 6.7838C34.6111 8.73687 35 10.9447 35 13.4073C35 15.5585 34.75 17.3559 34.25 18.7994C33.7778 20.243 33.0139 21.4177 31.9583 22.3235C31.2083 22.9745 30.3611 23.484 29.4167 23.852C28.4722 24.2199 27.3333 24.4888 26 24.6587C24.6944 24.8002 23.0694 24.871 21.125 24.871H1.33333V1.0095H7.54167V20.3279H15.2083V9.79832C15.2083 8.04339 15.3889 6.61397 15.75 5.51005C16.1389 4.40614 16.6944 3.48622 17.4167 2.75028C18.1667 2.01434 19.0833 1.46238 20.1667 1.09441C21.2778 0.698138 22.5556 0.5 24 0.5ZM24.4167 5.04302C24.0556 5.04302 23.6944 5.09963 23.3333 5.21285C23 5.32607 22.6944 5.52421 22.4167 5.80726C22.0556 6.17523 21.7917 6.68473 21.625 7.33575C21.4861 7.95847 21.4167 8.99162 21.4167 10.4352V20.3279H23C24.4722 20.3279 25.625 20.1156 26.4583 19.6911C27.3194 19.2382 27.9167 18.5022 28.25 17.4832C28.6111 16.4642 28.7917 15.1056 28.7917 13.4073C28.7917 11.8505 28.6528 10.4493 28.375 9.20391C28.0972 7.93017 27.6389 6.92532 27 6.18938C26.3611 5.42514 25.5 5.04302 24.4167 5.04302ZM7.54167 26.6966C8.09722 26.6966 8.66667 26.7108 9.25 26.7391C9.86111 26.7957 10.4167 26.8806 10.9167 26.9939L10.625 31.1972C10.3472 31.1406 10.0139 31.0981 9.625 31.0698C9.23611 31.0698 8.81944 31.0698 8.375 31.0698C7.68056 31.0698 7.08333 31.1689 6.58333 31.367C6.11111 31.5935 5.875 31.9615 5.875 32.4709C5.875 32.9238 6.04167 33.2635 6.375 33.4899C6.73611 33.7164 7.18056 33.8721 7.70833 33.957C8.26389 34.0419 8.83333 34.0844 9.41667 34.0844H10.5417C11.7639 34.0844 12.8194 33.9428 13.7083 33.6598C14.625 33.3767 15.4028 32.938 16.0417 32.3436C16.7083 31.7775 17.2639 31.0557 17.7083 30.1782C17.875 29.8669 18.1667 29.5696 18.5833 29.2866C19 29.0318 19.5833 28.8196 20.3333 28.6497C21.0833 28.5082 22.0139 28.4374 23.125 28.4374L26.9167 29.6687C25.7222 29.9235 24.8472 30.2207 24.2917 30.5603C23.7639 30.9283 23.375 31.3953 23.125 31.9615C22.4861 33.4616 21.6111 34.6929 20.5 35.6553C19.4167 36.646 18.0972 37.3678 16.5417 37.8207C14.9861 38.2736 13.1528 38.5 11.0417 38.5H9.5C8 38.5 6.59722 38.3302 5.29167 37.9905C4.01389 37.6508 3 37.2121 2.25 36.6743C1.66667 36.278 1.13889 35.7261 0.666667 35.0184C0.222222 34.3108 0 33.4333 0 32.386C0 30.6311 0.652778 29.2441 1.95833 28.2251C3.26389 27.2061 5.125 26.6966 7.54167 26.6966ZM21.5417 32.6832L21.1667 32.1737C20.0556 31.919 19.0556 31.5086 18.1667 30.9425C17.3056 30.4047 16.6111 29.6263 16.0833 28.6073C15.5833 27.6166 15.3056 26.357 15.25 24.8285L21.25 24.786C21.25 25.4654 21.3611 26.0456 21.5833 26.5268C21.8333 27.0363 22.2222 27.4184 22.75 27.6732C23.1389 27.8713 23.5833 27.9987 24.0833 28.0553C24.5833 28.1402 25.2639 28.1827 26.125 28.1827H30.5417V32.6832H21.5417Z" fill="#06173A" fill-opacity="0.05"/>
</svg>
