<svg width="17" height="17" viewBox="0 0 17 17" fill="none" xmlns="http://www.w3.org/2000/svg">
<g clip-path="url(#clip0_132_176)">
<path fill-rule="evenodd" clip-rule="evenodd" d="M10.0002 1.00049V16.0008H8.29315L4.29308 12.0007H1.50003C0.673005 12.0007 0 11.3277 0 10.5007V6.50058C0 5.67357 0.673005 5.00056 1.50003 5.00056H4.29308L8.29315 1.00049H10.0002ZM9.00016 2.0005H8.70715L5.00009 5.70757V11.2937L8.70715 15.0007H9.00016V2.00051V2.0005ZM14.804 3.19683C16.22 4.61385 17 6.49689 17 8.50091C17 10.504 16.22 12.387 14.804 13.804L14.0969 13.097C15.325 11.869 16 10.237 16 8.50092C16 6.76389 15.325 5.13186 14.0969 3.90384L14.804 3.19683ZM12.6868 5.31957C13.5338 6.17858 13.9998 7.3086 13.9998 8.50062C13.9998 9.69264 13.5338 10.8227 12.6868 11.6817L11.9738 10.9797C12.6358 10.3087 12.9998 9.42864 12.9998 8.50062C12.9998 7.57261 12.6358 6.69259 11.9738 6.02158L12.6868 5.31957ZM4.00007 6.00058H1.50003C1.22502 6.00058 1.00002 6.22459 1.00002 6.50058V10.5007C1.00002 10.7767 1.22502 11.0007 1.50003 11.0007H4.00007V6.00058Z" fill="#06173A"/>
</g>
<defs>
<clipPath id="clip0_132_176">
<rect width="17" height="17" fill="white"/>
</clipPath>
</defs>
</svg>
