<svg width="21" height="22" viewBox="0 0 21 22" fill="none" xmlns="http://www.w3.org/2000/svg">
<g clip-path="url(#clip0_292_488)">
<path fill-rule="evenodd" clip-rule="evenodd" d="M13.709 21.1339C11.9414 20.691 8.32287 19.4425 5.0424 16.1621C1.76193 12.8816 0.513437 9.263 0.070582 7.49542C-0.183929 6.47962 0.27437 5.49941 1.05147 4.94433L3.08869 3.48918C4.28068 2.63775 5.93889 2.92667 6.7727 4.13105L8.0553 5.98366C8.59972 6.77005 8.41186 7.84787 7.63363 8.4038L6.61091 9.1343C6.76569 9.72632 7.24708 10.9421 8.75468 12.4497C10.2623 13.9573 11.4781 14.4388 12.0701 14.5935L12.8007 13.5708C13.3566 12.7925 14.4344 12.6048 15.2208 13.1492L17.0734 14.4318C18.2777 15.2655 18.5667 16.9238 17.7153 18.1158L16.2601 20.1529C15.7051 20.9301 14.7248 21.3884 13.709 21.1339ZM6.27984 14.9246C9.26306 17.9078 12.5552 19.0406 14.1344 19.4363C14.3652 19.4942 14.6442 19.4045 14.8361 19.1358L16.2912 17.0986C16.5751 16.7012 16.4787 16.1485 16.0773 15.8706L14.2247 14.588L13.4407 15.6855C13.1204 16.134 12.5279 16.4858 11.8381 16.337C10.9771 16.1511 9.38547 15.5553 7.51726 13.6871C5.64907 11.819 5.05328 10.2273 4.86751 9.36635C4.71866 8.67651 5.07045 8.08404 5.51895 7.76369L6.61643 6.97977L5.33386 5.12717C5.05592 4.7257 4.50318 4.6294 4.10585 4.91321L2.06864 6.36837C1.79998 6.56026 1.71028 6.8393 1.76811 7.07011C2.16377 8.64927 3.29663 11.9414 6.27984 14.9246Z" fill="white"/>
<path d="M17.9874 8.25C17.9874 8.73324 17.5956 9.125 17.1124 9.125C16.6291 9.125 16.2374 8.73324 16.2374 8.25V5.98743L12.4938 9.73107C12.152 10.0728 11.598 10.0728 11.2563 9.73107C10.9146 9.38936 10.9146 8.83534 11.2563 8.49364L15 4.75H12.7374C12.2541 4.75 11.8624 4.35825 11.8624 3.875C11.8624 3.39175 12.2541 3 12.7374 3H16.2374C17.2039 3 17.9874 3.7835 17.9874 4.75V8.25Z" fill="white"/>
</g>
<defs>
<clipPath id="clip0_292_488">
<rect width="21" height="21" fill="white" transform="translate(0 0.138184)"/>
</clipPath>
</defs>
</svg>
