<svg width="30" height="30" viewBox="0 0 30 30" fill="none" xmlns="http://www.w3.org/2000/svg">
<path d="M19.614 15.1378C19.614 16.3313 19.1392 17.4759 18.2939 18.3198C17.4487 19.1637 16.3023 19.6378 15.107 19.6378C13.9117 19.6378 12.7653 19.1637 11.9201 18.3198C11.0748 17.4759 10.6 16.3313 10.6 15.1378C10.6 14.8813 10.627 14.6308 10.6736 14.3878H9.09765V20.3833C9.09765 20.8003 9.43567 21.1378 9.85332 21.1378H20.3622C20.5623 21.1374 20.7541 21.0577 20.8955 20.9163C21.0369 20.7748 21.1163 20.5831 21.1163 20.3833V14.3878H19.5404C19.587 14.6308 19.614 14.8813 19.614 15.1378ZM15.107 18.1378C15.5017 18.1377 15.8925 18.06 16.2571 17.9091C16.6217 17.7582 16.9529 17.5371 17.2319 17.2584C17.5109 16.9796 17.7322 16.6488 17.8832 16.2847C18.0341 15.9206 18.1118 15.5304 18.1117 15.1363C18.1116 14.7422 18.0337 14.352 17.8826 13.988C17.7315 13.624 17.51 13.2932 17.2309 13.0147C16.9517 12.7361 16.6203 12.5151 16.2557 12.3644C15.891 12.2137 15.5002 12.1362 15.1055 12.1363C14.3084 12.1365 13.544 12.4528 12.9806 13.0157C12.4171 13.5786 12.1006 14.3419 12.1008 15.1378C12.101 15.9336 12.4178 16.6968 12.9816 17.2594C13.5454 17.822 14.3099 18.138 15.107 18.1378ZM18.7126 11.9878H20.5139C20.6336 11.9878 20.7484 11.9404 20.8331 11.8561C20.9179 11.7717 20.9657 11.6573 20.9661 11.5378V9.73929C20.9661 9.61955 20.9185 9.50471 20.8337 9.42003C20.7488 9.33536 20.6338 9.28779 20.5139 9.28779H18.7126C18.5927 9.28779 18.4776 9.33536 18.3928 9.42003C18.308 9.50471 18.2604 9.61955 18.2604 9.73929V11.5378C18.2619 11.7853 18.4647 11.9878 18.7126 11.9878ZM15.107 0.737793C11.2819 0.737793 7.61353 2.25493 4.9088 4.95545C2.20407 7.65598 0.68457 11.3187 0.68457 15.1378C0.68457 18.9569 2.20407 22.6196 4.9088 25.3201C7.61353 28.0207 11.2819 29.5378 15.107 29.5378C17.001 29.5378 18.8764 29.1653 20.6262 28.4417C22.376 27.718 23.9659 26.6573 25.3052 25.3201C26.6444 23.983 27.7068 22.3955 28.4316 20.6484C29.1564 18.9013 29.5294 17.0288 29.5294 15.1378C29.5294 13.2468 29.1564 11.3742 28.4316 9.62715C27.7068 7.88006 26.6444 6.29262 25.3052 4.95545C23.9659 3.61829 22.376 2.5576 20.6262 1.83393C18.8764 1.11026 17.001 0.737793 15.107 0.737793ZM22.6187 20.9713C22.6187 21.8878 21.8675 22.6378 20.9496 22.6378H9.26441C8.34648 22.6378 7.59531 21.8878 7.59531 20.9713V9.30429C7.59531 8.38779 8.34648 7.63779 9.26441 7.63779H20.9496C21.8675 7.63779 22.6187 8.38779 22.6187 9.30429V20.9713Z" fill="white"/>
</svg>
