<svg width="30" height="30" viewBox="0 0 30 30" fill="none" xmlns="http://www.w3.org/2000/svg">
<path d="M19.614 14.6378C19.614 15.8313 19.1392 16.9759 18.2939 17.8198C17.4487 18.6637 16.3023 19.1378 15.107 19.1378C13.9117 19.1378 12.7653 18.6637 11.9201 17.8198C11.0748 16.9759 10.6 15.8313 10.6 14.6378C10.6 14.3813 10.627 14.1308 10.6736 13.8878H9.09765V19.8833C9.09765 20.3003 9.43567 20.6378 9.85332 20.6378H20.3622C20.5623 20.6374 20.7541 20.5577 20.8955 20.4163C21.0369 20.2748 21.1163 20.0831 21.1163 19.8833V13.8878H19.5404C19.587 14.1308 19.614 14.3813 19.614 14.6378ZM15.107 17.6378C15.5017 17.6377 15.8925 17.56 16.2571 17.4091C16.6217 17.2582 16.9529 17.0371 17.2319 16.7584C17.5109 16.4796 17.7322 16.1488 17.8832 15.7847C18.0341 15.4206 18.1118 15.0304 18.1117 14.6363C18.1116 14.2422 18.0337 13.852 17.8826 13.488C17.7315 13.124 17.51 12.7932 17.2309 12.5147C16.9517 12.2361 16.6203 12.0151 16.2557 11.8644C15.891 11.7137 15.5002 11.6362 15.1055 11.6363C14.3084 11.6365 13.544 11.9528 12.9806 12.5157C12.4171 13.0786 12.1006 13.8419 12.1008 14.6378C12.101 15.4336 12.4178 16.1968 12.9816 16.7594C13.5454 17.322 14.3099 17.638 15.107 17.6378ZM18.7126 11.4878H20.5139C20.6336 11.4878 20.7484 11.4404 20.8331 11.3561C20.9179 11.2717 20.9657 11.1573 20.9661 11.0378V9.23929C20.9661 9.11955 20.9185 9.00471 20.8337 8.92003C20.7488 8.83536 20.6338 8.78779 20.5139 8.78779H18.7126C18.5927 8.78779 18.4776 8.83536 18.3928 8.92003C18.308 9.00471 18.2604 9.11955 18.2604 9.23929V11.0378C18.2619 11.2853 18.4647 11.4878 18.7126 11.4878ZM15.107 0.237793C11.2819 0.237793 7.61353 1.75493 4.9088 4.45545C2.20407 7.15598 0.68457 10.8187 0.68457 14.6378C0.68457 18.4569 2.20407 22.1196 4.9088 24.8201C7.61353 27.5207 11.2819 29.0378 15.107 29.0378C17.001 29.0378 18.8764 28.6653 20.6262 27.9417C22.376 27.218 23.9659 26.1573 25.3052 24.8201C26.6444 23.483 27.7068 21.8955 28.4316 20.1484C29.1564 18.4013 29.5294 16.5288 29.5294 14.6378C29.5294 12.7468 29.1564 10.8742 28.4316 9.12715C27.7068 7.38006 26.6444 5.79262 25.3052 4.45545C23.9659 3.11829 22.376 2.0576 20.6262 1.33393C18.8764 0.61026 17.001 0.237793 15.107 0.237793ZM22.6187 20.4713C22.6187 21.3878 21.8675 22.1378 20.9496 22.1378H9.26441C8.34648 22.1378 7.59531 21.3878 7.59531 20.4713V8.80429C7.59531 7.88779 8.34648 7.13779 9.26441 7.13779H20.9496C21.8675 7.13779 22.6187 7.88779 22.6187 8.80429V20.4713Z" fill="white"/>
</svg>
