<svg width="30" height="30" viewBox="0 0 30 30" fill="none" xmlns="http://www.w3.org/2000/svg">
<path d="M14.9493 0.237793C6.9845 0.237793 0.529297 6.68404 0.529297 14.6378C0.529297 22.5915 6.9845 29.0378 14.9493 29.0378C22.9141 29.0378 29.3693 22.5915 29.3693 14.6378C29.3693 6.68404 22.9141 0.237793 14.9493 0.237793ZM10.9162 20.6622H8.10543V11.679H10.9162V20.6622ZM9.43477 10.554H9.41224C8.3927 10.554 7.73366 9.86779 7.73366 8.99592C7.73366 8.10717 8.41523 7.43779 9.45167 7.43779C10.4881 7.43779 11.1246 8.10717 11.1471 8.99592C11.1528 9.86217 10.4937 10.554 9.43477 10.554ZM22.1593 20.6622H18.9711V16.0159C18.9711 14.8009 18.4754 13.9684 17.377 13.9684C16.5378 13.9684 16.0702 14.5309 15.8562 15.0709C15.7773 15.2622 15.7886 15.5322 15.7886 15.8078V20.6622H12.6286C12.6286 20.6622 12.668 12.4272 12.6286 11.679H15.7886V13.0909C15.9745 12.4722 16.9827 11.5947 18.5937 11.5947C20.5934 11.5947 22.1593 12.8884 22.1593 15.6672V20.6622Z" fill="white"/>
</svg>
