<svg width="30" height="30" viewBox="0 0 30 30" fill="none" xmlns="http://www.w3.org/2000/svg">
<path d="M14.9493 0.737793C6.9845 0.737793 0.529297 7.18404 0.529297 15.1378C0.529297 23.0915 6.9845 29.5378 14.9493 29.5378C22.9141 29.5378 29.3693 23.0915 29.3693 15.1378C29.3693 7.18404 22.9141 0.737793 14.9493 0.737793ZM10.9162 21.1622H8.10543V12.179H10.9162V21.1622ZM9.43477 11.054H9.41224C8.3927 11.054 7.73366 10.3678 7.73366 9.49592C7.73366 8.60717 8.41523 7.93779 9.45167 7.93779C10.4881 7.93779 11.1246 8.60717 11.1471 9.49592C11.1528 10.3622 10.4937 11.054 9.43477 11.054ZM22.1593 21.1622H18.9711V16.5159C18.9711 15.3009 18.4754 14.4684 17.377 14.4684C16.5378 14.4684 16.0702 15.0309 15.8562 15.5709C15.7773 15.7622 15.7886 16.0322 15.7886 16.3078V21.1622H12.6286C12.6286 21.1622 12.668 12.9272 12.6286 12.179H15.7886V13.5909C15.9745 12.9722 16.9827 12.0947 18.5937 12.0947C20.5934 12.0947 22.1593 13.3884 22.1593 16.1672V21.1622Z" fill="white"/>
</svg>
