<svg width="20" height="25" viewBox="0 0 20 25" fill="none" xmlns="http://www.w3.org/2000/svg">
<path d="M16.4 15.784L16.9698 16.2718L16.9762 16.2641L16.4 15.784ZM9.67661 23.6382L9.10601 24.1249C9.24835 24.2918 9.45662 24.388 9.67596 24.3882C9.8953 24.3884 10.1037 24.2925 10.2464 24.1259L9.67661 23.6382ZM2.99439 15.8046L3.56499 15.3178C3.4225 15.1508 3.21396 15.0546 2.99439 15.0546V15.8046ZM2.97383 15.8046L2.39126 16.2769C2.53367 16.4526 2.74772 16.5546 2.97383 16.5546V15.8046ZM1 10.2943L0.25 10.291V10.2943H1ZM10.937 9.63818C10.937 10.3285 10.3774 10.8882 9.68701 10.8882V12.3882C11.2058 12.3882 12.437 11.157 12.437 9.63818H10.937ZM9.68701 10.8882C8.99666 10.8882 8.43701 10.3285 8.43701 9.63818H6.93701C6.93701 11.157 8.16823 12.3882 9.68701 12.3882V10.8882ZM8.43701 9.63818C8.43701 8.94783 8.99666 8.38818 9.68701 8.38818V6.88818C8.16823 6.88818 6.93701 8.1194 6.93701 9.63818H8.43701ZM9.68701 8.38818C10.3774 8.38818 10.937 8.94783 10.937 9.63818H12.437C12.437 8.1194 11.2058 6.88818 9.68701 6.88818V8.38818ZM15.8303 15.2963L9.10685 23.1505L10.2464 24.1259L16.9698 16.2717L15.8303 15.2963ZM10.2472 23.1514L3.56499 15.3178L2.42379 16.2913L9.10601 24.1249L10.2472 23.1514ZM2.99439 15.0546H2.97383V16.5546H2.99439V15.0546ZM3.5564 15.3322C2.42375 13.9353 1.75 12.2082 1.75 10.2943H0.25C0.25 12.5748 1.05663 14.6309 2.39126 16.2769L3.5564 15.3322ZM1.74999 10.2975C1.76878 5.93961 5.32022 2.38818 9.69721 2.38818V0.888184C4.49286 0.888184 0.272344 5.10871 0.250007 10.291L1.74999 10.2975ZM9.69721 2.38818C14.0748 2.38818 17.6238 5.93953 17.6238 10.2943H19.1238C19.1238 5.10879 14.9009 0.888184 9.69721 0.888184V2.38818ZM17.6238 10.2943C17.6238 12.1921 16.9473 13.9556 15.8238 15.3039L16.9762 16.2641C18.3199 14.6515 19.1238 12.5497 19.1238 10.2943H17.6238Z" fill="#3570FF"/>
</svg>
