<svg width="23" height="24" viewBox="0 0 23 24" fill="none" xmlns="http://www.w3.org/2000/svg">
<path d="M20.9839 18.2229C20.9745 18.1266 20.9603 18.0302 20.9411 17.9337C20.8885 17.6638 20.8007 17.4016 20.68 17.1537C20.6069 17.0058 20.4984 16.8774 20.3638 16.7798C20.2293 16.6821 20.0727 16.618 19.9075 16.593L16.3122 15.9387C15.9733 15.8857 15.6119 16.0908 15.3759 16.3365C14.9835 16.7454 14.7066 17.2484 14.5728 17.7955C14.5665 17.8211 14.5547 17.8452 14.5384 17.8662C14.5221 17.8871 14.5014 17.9044 14.4779 17.917C14.4543 17.9296 14.4283 17.9372 14.4015 17.9393C14.3748 17.9414 14.3479 17.9379 14.3226 17.9291C10.8074 16.7454 7.94242 13.971 6.78818 10.3113C6.77373 10.2648 6.77816 10.2145 6.80056 10.1712C6.82295 10.1278 6.86155 10.0947 6.90823 10.0788C7.27464 9.95287 8.11437 9.63355 8.45108 9.32932C8.57264 9.21798 8.66514 9.07939 8.72071 8.92532C8.77628 8.77126 8.79328 8.60626 8.77027 8.44433L8.28382 4.87392C8.26263 4.71203 8.20216 4.55754 8.10753 4.42354C8.0129 4.28954 7.88688 4.17997 7.74015 4.1041C7.25743 3.86029 6.72056 3.73904 6.17822 3.75134C5.63588 3.76364 5.10524 3.90911 4.63444 4.17455C4.16363 4.43999 3.76756 4.81701 3.48214 5.27139C3.19673 5.72578 3.031 6.24316 3 6.7766C3 6.93056 3.00188 7.08145 3.00688 7.23356C3.031 8.04355 3.12165 8.85028 3.27793 9.64586C4.6307 16.5379 10.5917 21.4031 17.4055 21.7351C17.5546 21.7428 17.7038 21.748 17.8541 21.7505C18.2996 21.7351 18.7372 21.6299 19.1398 21.4413C19.5424 21.2528 19.9014 20.985 20.1947 20.6543C20.4881 20.3237 20.7094 19.9374 20.8452 19.5192C20.9809 19.101 21.0281 18.6598 20.9839 18.2229Z" stroke="white" stroke-width="1.5" stroke-miterlimit="10" stroke-linecap="round"/>
<path d="M11 10.7505L14 13.7505" stroke="white" stroke-width="1.5" stroke-miterlimit="10" stroke-linecap="round"/>
<path d="M18 8.75049L14 13.7505" stroke="white" stroke-width="1.5" stroke-miterlimit="10" stroke-linecap="round"/>
<path d="M16 8.75049H18" stroke="white" stroke-width="1.5" stroke-miterlimit="10" stroke-linecap="round"/>
<path d="M18 8.75049V10.7505" stroke="white" stroke-width="1.5" stroke-miterlimit="10" stroke-linecap="round"/>
</svg>
