<svg width="20" height="21" viewBox="0 0 20 21" fill="none" xmlns="http://www.w3.org/2000/svg">
<path d="M9 8.5L12 11.5L16 6.5M16 6.5H14M16 6.5V8.5M18.9839 15.9724C18.9745 15.8761 18.9603 15.7797 18.9411 15.6832C18.8885 15.4133 18.8007 15.1511 18.68 14.9033C18.6069 14.7553 18.4984 14.627 18.3638 14.5293C18.2293 14.4316 18.0727 14.3676 17.9075 14.3425L14.3122 13.6882C13.9733 13.6352 13.6119 13.8403 13.3759 14.086C12.9835 14.4949 12.7066 14.9979 12.5728 15.545C12.5665 15.5707 12.5547 15.5947 12.5384 15.6157C12.5221 15.6366 12.5014 15.654 12.4779 15.6666C12.4543 15.6792 12.4283 15.6867 12.4015 15.6888C12.3748 15.6909 12.3479 15.6874 12.3226 15.6786C8.80739 14.4949 5.94242 11.7205 4.78818 8.06081C4.77373 8.01429 4.77816 7.96406 4.80056 7.9207C4.82295 7.87733 4.86155 7.84422 4.90823 7.82832C5.27464 7.70238 6.11437 7.38306 6.45108 7.07883C6.57264 6.96749 6.66514 6.8289 6.72071 6.67484C6.77628 6.52077 6.79328 6.35577 6.77027 6.19384L6.28382 2.62343C6.26263 2.46154 6.20216 2.30705 6.10753 2.17306C6.0129 2.03906 5.88688 1.92948 5.74015 1.85361C5.25743 1.6098 4.72056 1.48855 4.17822 1.50085C3.63588 1.51315 3.10524 1.65862 2.63444 1.92407C2.16363 2.18951 1.76756 2.56652 1.48214 3.0209C1.19673 3.47529 1.031 3.99267 1 4.52611C1 4.68007 1.00188 4.83096 1.00688 4.98307C1.031 5.79306 1.12165 6.5998 1.27793 7.39538C2.6307 14.2874 8.59168 19.1527 15.4055 19.4846C15.5546 19.4923 15.7038 19.4975 15.8541 19.5C16.2996 19.4846 16.7372 19.3794 17.1398 19.1909C17.5424 19.0023 17.9014 18.7345 18.1947 18.4039C18.4881 18.0732 18.7094 17.6869 18.8452 17.2687C18.9809 16.8505 19.0281 16.4093 18.9839 15.9724Z" stroke="#3570FF" stroke-width="1.5" stroke-miterlimit="10" stroke-linecap="round"/>
</svg>
