<svg width="23" height="24" viewBox="0 0 23 24" fill="none" xmlns="http://www.w3.org/2000/svg">
<path d="M20.9839 17.9729C20.9745 17.8766 20.9603 17.7802 20.9411 17.6837C20.8885 17.4138 20.8007 17.1516 20.68 16.9037C20.6069 16.7558 20.4984 16.6274 20.3638 16.5298C20.2293 16.4321 20.0727 16.368 19.9075 16.343L16.3122 15.6887C15.9733 15.6357 15.6119 15.8408 15.3759 16.0865C14.9835 16.4954 14.7066 16.9984 14.5728 17.5455C14.5665 17.5711 14.5547 17.5952 14.5384 17.6162C14.5221 17.6371 14.5014 17.6544 14.4779 17.667C14.4543 17.6796 14.4283 17.6872 14.4015 17.6893C14.3748 17.6914 14.3479 17.6879 14.3226 17.6791C10.8074 16.4954 7.94242 13.721 6.78818 10.0613C6.77373 10.0148 6.77816 9.96455 6.80056 9.92118C6.82295 9.87782 6.86155 9.84471 6.90823 9.82881C7.27464 9.70287 8.11437 9.38355 8.45108 9.07932C8.57264 8.96798 8.66514 8.82939 8.72071 8.67532C8.77628 8.52126 8.79328 8.35626 8.77027 8.19433L8.28382 4.62392C8.26263 4.46203 8.20216 4.30754 8.10753 4.17354C8.0129 4.03954 7.88688 3.92997 7.74015 3.8541C7.25743 3.61029 6.72056 3.48904 6.17822 3.50134C5.63588 3.51364 5.10524 3.65911 4.63444 3.92455C4.16363 4.18999 3.76756 4.56701 3.48214 5.02139C3.19673 5.47578 3.031 5.99316 3 6.5266C3 6.68056 3.00188 6.83145 3.00688 6.98356C3.031 7.79355 3.12165 8.60028 3.27793 9.39586C4.6307 16.2879 10.5917 21.1531 17.4055 21.4851C17.5546 21.4928 17.7038 21.498 17.8541 21.5005C18.2996 21.4851 18.7372 21.3799 19.1398 21.1913C19.5424 21.0028 19.9014 20.735 20.1947 20.4043C20.4881 20.0737 20.7094 19.6874 20.8452 19.2692C20.9809 18.851 21.0281 18.4098 20.9839 17.9729Z" stroke="white" stroke-width="1.5" stroke-miterlimit="10" stroke-linecap="round"/>
<path d="M11 10.5005L14 13.5005" stroke="white" stroke-width="1.5" stroke-miterlimit="10" stroke-linecap="round"/>
<path d="M18 8.50049L14 13.5005" stroke="white" stroke-width="1.5" stroke-miterlimit="10" stroke-linecap="round"/>
<path d="M16 8.50049H18" stroke="white" stroke-width="1.5" stroke-miterlimit="10" stroke-linecap="round"/>
<path d="M18 8.50049V10.5005" stroke="white" stroke-width="1.5" stroke-miterlimit="10" stroke-linecap="round"/>
</svg>
