<svg width="24" height="23" viewBox="0 0 24 23" fill="none" xmlns="http://www.w3.org/2000/svg">
<path d="M13.3784 6.01508C14.7281 6.01508 16.0585 6.51639 17.0804 7.5383C18.1023 8.56021 18.6229 9.90992 18.6036 11.2403M14.2847 1.63818C16.5213 1.63818 18.7579 2.48656 20.4547 4.1833C22.1514 5.88005 23.0191 8.11668 22.9998 10.3533M1 7.75033C1.44347 9.54349 2.52322 12.9177 5.35756 16.1955C8.55825 19.9361 12.2795 21.5171 14.0534 22.1534C14.5547 22.1534 15.2874 22.0956 16.0972 21.7678C17.8518 21.0351 18.6616 19.5504 18.8737 19.0877C18.7387 18.6249 18.4688 17.9308 17.8904 17.2367C17.0034 16.1377 15.9044 15.6942 15.4031 15.5207C14.7668 15.8099 13.7449 16.6197 13.3593 17.1788C10.8913 16.369 6.51443 11.8379 5.78175 9.02289C6.32162 8.61799 6.8615 8.21308 7.40137 7.80818C7.40137 7.44183 7.30496 6.3428 6.47587 5.3209C5.78175 4.47252 4.93337 4.12546 4.56703 4.00977C3.37159 4.27971 1.19281 6.59346 1 7.76961V7.75033Z" stroke="#3570FF" stroke-width="1.5" stroke-linecap="round" stroke-linejoin="round"/>
</svg>
