<svg width="30" height="30" viewBox="0 0 30 30" fill="none" xmlns="http://www.w3.org/2000/svg">
<path d="M14.7925 0.237793C6.82715 0.237793 0.370117 6.68479 0.370117 14.6378C0.370117 22.5908 6.82715 29.0378 14.7925 29.0378C22.7579 29.0378 29.215 22.5908 29.215 14.6378C29.215 6.68479 22.7579 0.237793 14.7925 0.237793ZM20.6592 12.0338C20.6652 12.1568 20.6667 12.2798 20.6667 12.3998C20.6667 16.1498 17.8107 20.4713 12.5856 20.4713C11.0416 20.4739 9.52981 20.0311 8.23184 19.1963C8.45268 19.2233 8.67953 19.2338 8.90939 19.2338C10.2405 19.2338 11.4649 18.7823 12.4369 18.0203C11.8445 18.0087 11.2706 17.8128 10.795 17.4601C10.3194 17.1073 9.96591 16.6152 9.78375 16.0523C10.2091 16.1331 10.6474 16.1161 11.0652 16.0028C10.4223 15.873 9.84414 15.5252 9.42876 15.0183C9.01338 14.5114 8.78636 13.8767 8.7862 13.2218V13.1873C9.16929 13.3988 9.60798 13.5278 10.0737 13.5428C9.47096 13.1422 9.04428 12.5268 8.88091 11.8225C8.71755 11.1182 8.82984 10.3782 9.19484 9.75379C9.90838 10.6298 10.7982 11.3464 11.8067 11.8573C12.8153 12.3681 13.92 12.6618 15.0494 12.7193C14.9058 12.1108 14.9676 11.4719 15.2252 10.9021C15.4828 10.3322 15.9217 9.86328 16.4738 9.56819C17.0258 9.2731 17.66 9.16838 18.2778 9.2703C18.8956 9.37222 19.4623 9.67508 19.89 10.1318C20.5257 10.0062 21.1354 9.77337 21.6928 9.44329C21.4809 10.1005 21.0373 10.6586 20.4443 11.0138C21.0075 10.9461 21.5574 10.7949 22.0759 10.5653C21.695 11.1351 21.2152 11.6324 20.6592 12.0338Z" fill="white"/>
</svg>
