<svg width="30" height="30" viewBox="0 0 30 30" fill="none" xmlns="http://www.w3.org/2000/svg">
<path d="M14.7925 0.737793C6.82715 0.737793 0.370117 7.18479 0.370117 15.1378C0.370117 23.0908 6.82715 29.5378 14.7925 29.5378C22.7579 29.5378 29.215 23.0908 29.215 15.1378C29.215 7.18479 22.7579 0.737793 14.7925 0.737793ZM20.6592 12.5338C20.6652 12.6568 20.6667 12.7798 20.6667 12.8998C20.6667 16.6498 17.8107 20.9713 12.5856 20.9713C11.0416 20.9739 9.52981 20.5311 8.23184 19.6963C8.45268 19.7233 8.67953 19.7338 8.90939 19.7338C10.2405 19.7338 11.4649 19.2823 12.4369 18.5203C11.8445 18.5087 11.2706 18.3128 10.795 17.9601C10.3194 17.6073 9.96591 17.1152 9.78375 16.5523C10.2091 16.6331 10.6474 16.6161 11.0652 16.5028C10.4223 16.373 9.84414 16.0252 9.42876 15.5183C9.01338 15.0114 8.78636 14.3767 8.7862 13.7218V13.6873C9.1693 13.8988 9.60798 14.0278 10.0737 14.0428C9.47096 13.6422 9.04428 13.0268 8.88091 12.3225C8.71755 11.6182 8.82984 10.8782 9.19484 10.2538C9.90838 11.1298 10.7982 11.8464 11.8067 12.3573C12.8153 12.8681 13.92 13.1618 15.0494 13.2193C14.9058 12.6108 14.9676 11.9719 15.2252 11.4021C15.4828 10.8322 15.9217 10.3633 16.4738 10.0682C17.0258 9.7731 17.66 9.66838 18.2778 9.7703C18.8956 9.87222 19.4623 10.1751 19.89 10.6318C20.5257 10.5062 21.1354 10.2734 21.6928 9.94329C21.4809 10.6005 21.0373 11.1586 20.4443 11.5138C21.0075 11.4461 21.5574 11.2949 22.0759 11.0653C21.695 11.6351 21.2152 12.1324 20.6592 12.5338Z" fill="white"/>
</svg>
