<svg width="32" height="33" viewBox="0 0 32 33" fill="none" xmlns="http://www.w3.org/2000/svg">
<path d="M32 16.6382C32 25.4747 24.8366 32.6382 16 32.6382C7.16344 32.6382 0 25.4747 0 16.6382C0 7.80163 7.16344 0.638184 16 0.638184C24.8366 0.638184 32 7.80163 32 16.6382Z" fill="#3570FF"/>
<path d="M12.0537 21.4782V19.4462C14.5337 17.3982 17.1737 15.3662 17.1737 13.3982C17.1737 12.5502 16.7897 12.0062 15.9577 12.0062C15.1417 12.0062 14.6617 12.6462 14.6617 13.7502H12.0217C12.1017 10.9182 13.9417 9.70218 16.0697 9.70218C18.7257 9.70218 19.9097 11.2542 19.9097 13.2222C19.9097 15.7822 17.6217 17.8302 15.7657 19.2542H20.0857V21.4782H12.0537Z" fill="white"/>
</svg>
