<svg width="32" height="33" viewBox="0 0 32 33" fill="none" xmlns="http://www.w3.org/2000/svg">
<path d="M32 16.6382C32 25.4747 24.8366 32.6382 16 32.6382C7.16344 32.6382 0 25.4747 0 16.6382C0 7.80163 7.16344 0.638184 16 0.638184C24.8366 0.638184 32 7.80163 32 16.6382Z" fill="#3570FF"/>
<path d="M11.9722 14.2542C12.0682 11.9502 13.5723 10.6862 15.9563 10.6862C18.4202 10.6862 19.7482 12.0942 19.7482 13.8542C19.7482 15.3902 18.7882 16.2062 17.9883 16.4782V16.5422C19.1562 16.9262 19.9562 17.8222 19.9562 19.3582C19.9562 21.3262 18.5483 22.7342 16.1003 22.7342C13.6683 22.7342 11.9082 21.5822 11.8282 18.9422H14.4843C14.5002 19.8542 14.9963 20.4622 16.0042 20.4622C16.8522 20.4622 17.3162 19.9182 17.3162 19.1502C17.3162 18.1102 16.6922 17.6942 15.2682 17.6942H14.7563V15.4702H15.2682C16.1963 15.4702 17.0923 15.2462 17.0923 14.1902C17.0923 13.4062 16.6283 12.9742 15.8923 12.9742C15.0122 12.9742 14.6923 13.6142 14.6442 14.2542H11.9722Z" fill="white"/>
</svg>
