<svg width="21" height="22" viewBox="0 0 21 22" fill="none" xmlns="http://www.w3.org/2000/svg">
<path d="M17.9403 3.18992C15.966 1.22312 13.3409 0.139384 10.5439 0.138184C4.78043 0.138184 0.0900925 4.80609 0.0877851 10.5436C0.0871135 12.3776 0.568468 14.1679 1.48339 15.746L0 21.1382L5.54292 19.6912C7.07011 20.5204 8.78961 20.9573 10.5394 20.958H10.5439C16.3065 20.958 20.9976 16.2893 21 10.552C21.001 7.77137 19.9143 5.15684 17.9403 3.18992ZM10.5439 19.2005H10.5405C8.98083 19.1997 7.45133 18.7828 6.11723 17.9947L5.79974 17.8073L2.51045 18.6659L3.38864 15.4743L3.18179 15.1471C2.31177 13.77 1.85247 12.1785 1.85313 10.5443C1.85504 5.77544 5.75347 1.89577 10.5472 1.89577C12.8686 1.89673 15.0505 2.79754 16.6914 4.43228C18.3322 6.067 19.2352 8.24014 19.2345 10.5513C19.2325 15.3203 15.3339 19.2005 10.5439 19.2005Z" fill="#E0E0E0"/>
<path d="M0.479994 20.5399L1.89563 15.394C1.02227 13.888 0.562992 12.1794 0.563543 10.4295C0.565833 4.95413 5.04196 0.499585 10.5417 0.499585C13.211 0.500785 15.7163 1.53497 17.6 3.41196C19.484 5.28894 20.521 7.78386 20.5199 10.4372C20.5176 15.9127 16.0412 20.3676 10.5421 20.3676H10.5377C8.86777 20.3671 7.22694 19.9498 5.76962 19.1591L0.479994 20.5399Z" fill="url(#paint0_linear_292_492)"/>
<path fill-rule="evenodd" clip-rule="evenodd" d="M7.96011 6.126C7.76667 5.69783 7.563 5.68926 7.37895 5.68177C7.22842 5.67534 7.05609 5.67573 6.88403 5.67573C6.71184 5.67573 6.43202 5.74016 6.19539 5.99743C5.95862 6.25471 5.29137 6.87666 5.29137 8.1416C5.29137 9.40667 6.21691 10.629 6.34592 10.8007C6.47507 10.9721 8.13258 13.651 10.7576 14.6815C12.9392 15.538 13.3832 15.3676 13.8567 15.3248C14.3303 15.2819 15.3847 14.7029 15.5999 14.1025C15.8152 13.5023 15.8152 12.9877 15.7506 12.8802C15.686 12.773 15.5138 12.7088 15.2555 12.5802C14.9972 12.4516 13.7276 11.8295 13.4908 11.7438C13.254 11.6581 13.0818 11.6152 12.9097 11.8727C12.7375 12.1298 12.2428 12.7088 12.0921 12.8802C11.9415 13.052 11.7908 13.0734 11.5325 12.9449C11.2742 12.8159 10.4424 12.5447 9.45566 11.6688C8.68791 10.9874 8.16957 10.1458 8.0189 9.88838C7.86823 9.63124 8.00275 9.49196 8.13231 9.36378C8.24826 9.2486 8.3906 9.06365 8.51975 8.91352C8.64862 8.76338 8.69167 8.65624 8.77776 8.48481C8.86386 8.31311 8.82081 8.16299 8.75624 8.03442C8.69167 7.90585 8.18975 6.63438 7.96011 6.126Z" fill="white"/>
<path d="M17.8549 3.15685C15.9033 1.21263 13.3083 0.141355 10.5435 0.140138C4.84609 0.140138 0.209596 4.75445 0.207306 10.4261C0.206634 12.2391 0.682461 14.0088 1.58688 15.5688L0.120537 20.8991L5.59984 19.4687C7.1095 20.2883 8.80926 20.7203 10.539 20.7209H10.5434C16.2398 20.7209 20.877 16.1058 20.8795 10.4344C20.8804 7.68571 19.8062 5.1012 17.8549 3.15685ZM10.5435 18.9836H10.5401C8.99828 18.9828 7.48632 18.5707 6.16754 17.7917L5.85369 17.6065L2.60216 18.4552L3.47026 15.3003L3.26578 14.9768C2.40575 13.6155 1.95173 12.0422 1.9524 10.4268C1.95428 5.71271 5.80795 1.87758 10.5467 1.87758C12.8415 1.87852 14.9982 2.76899 16.6203 4.38496C18.2423 6.00093 19.1349 8.14911 19.1342 10.4338C19.1322 15.148 15.2784 18.9836 10.5435 18.9836Z" fill="white"/>
<defs>
<linearGradient id="paint0_linear_292_492" x1="10.5" y1="21.1382" x2="10.5" y2="0.138219" gradientUnits="userSpaceOnUse">
<stop stop-color="#20B038"/>
<stop offset="1" stop-color="#60D66A"/>
</linearGradient>
</defs>
</svg>
