<svg width="30" height="30" viewBox="0 0 30 30" fill="none" xmlns="http://www.w3.org/2000/svg">
<path d="M13.3439 17.9109L18.0642 15.1434L13.3439 12.3759V17.9109Z" fill="white"/>
<path d="M15.2647 0.737793C7.29993 0.737793 0.844727 7.18404 0.844727 15.1378C0.844727 23.0915 7.29993 29.5378 15.2647 29.5378C23.2295 29.5378 29.6847 23.0915 29.6847 15.1378C29.6847 7.18404 23.2295 0.737793 15.2647 0.737793ZM22.4747 17.714C22.4747 20.1947 19.9907 20.1947 19.9907 20.1947H10.5388C8.05473 20.1947 8.05473 17.714 8.05473 17.714V12.5672C8.05473 10.0865 10.5388 10.0865 10.5388 10.0865H19.9907C22.4747 10.0865 22.4747 12.5672 22.4747 12.5672V17.714Z" fill="white"/>
</svg>
