<svg width="30" height="30" viewBox="0 0 30 30" fill="none" xmlns="http://www.w3.org/2000/svg">
<path d="M13.3439 17.4109L18.0642 14.6434L13.3439 11.8759V17.4109Z" fill="white"/>
<path d="M15.2647 0.237793C7.29993 0.237793 0.844727 6.68404 0.844727 14.6378C0.844727 22.5915 7.29993 29.0378 15.2647 29.0378C23.2295 29.0378 29.6847 22.5915 29.6847 14.6378C29.6847 6.68404 23.2295 0.237793 15.2647 0.237793ZM22.4747 17.214C22.4747 19.6947 19.9907 19.6947 19.9907 19.6947H10.5388C8.05473 19.6947 8.05473 17.214 8.05473 17.214V12.0672C8.05473 9.58654 10.5388 9.58654 10.5388 9.58654H19.9907C22.4747 9.58654 22.4747 12.0672 22.4747 12.0672V17.214Z" fill="white"/>
</svg>
